STARTFONT 2.1
FONT -Adobe-ITC Lubalin Graph-Book-R-Normal--17-120-100-100-P-89-ISO8859-1
SIZE 12 100 100
FONTBOUNDINGBOX 21 20 -3 -4

STARTPROPERTIES 30
FOUNDRY "Adobe"
FAMILY_NAME "ITC Lubalin Graph"
WEIGHT_NAME "Book"
SLANT "R"
SETWIDTH_NAME "Normal"
ADD_STYLE_NAME ""
PIXEL_SIZE 17
POINT_SIZE 120
RESOLUTION_X 100
RESOLUTION_Y 100
SPACING "P"
AVERAGE_WIDTH 89
CHARSET_REGISTRY "ISO8859"
CHARSET_ENCODING "1"
CAP_HEIGHT 12
X_HEIGHT 9
FACE_NAME "ITC Lubalin Graph Book"
COPYRIGHT "Copyright (c) 1984, 1987 Adobe Systems Incorporated. All Rights Reserved. Copyright (c) 1988, 1991 Digital Equipment Corporation. All Rights Reserved."
NOTICE "ITC Lubalin Graph is a registered trademark of International Typeface Corporation."
_DEC_DEVICE_FONTNAMES "PS=LubalinGraph-Book"
_DEC_PRODUCTINFO "DECwindows Fonts V2.2, 07-Nov-1991"
RELATIVE_SETWIDTH 50
RELATIVE_WEIGHT 40
CHARSET_COLLECTIONS "ASCII ISO8859-1 ADOBE-STANDARD"
FULL_NAME "ITC Lubalin Graph Book"
WEIGHT 10
QUAD_WIDTH 9
DEFAULT_CHAR 32
FONT_DESCENT 4
FONT_ASCENT 14
ENDPROPERTIES

CHARS 191

STARTCHAR space
ENCODING 32
SWIDTH 300 0
DWIDTH 4 0
BBX 1 1 0 0
BITMAP
00
ENDCHAR

STARTCHAR exclam
ENCODING 33
SWIDTH 140 0
DWIDTH 2 0
BBX 1 12 0 0
BITMAP
80
80
80
80
80
80
80
80
80
00
80
80
ENDCHAR

STARTCHAR quotedbl
ENCODING 34
SWIDTH 280 0
DWIDTH 4 0
BBX 3 4 0 8
BITMAP
A0
A0
A0
A0
ENDCHAR

STARTCHAR numbersign
ENCODING 35
SWIDTH 580 0
DWIDTH 9 0
BBX 8 12 0 0
BITMAP
12
12
12
12
7F
24
24
FE
48
48
48
48
ENDCHAR

STARTCHAR dollar
ENCODING 36
SWIDTH 580 0
DWIDTH 9 0
BBX 7 16 1 -2
BITMAP
10
10
7A
96
92
90
D0
70
1C
16
12
92
D2
BC
10
10
ENDCHAR

STARTCHAR percent
ENCODING 37
SWIDTH 800 0
DWIDTH 13 0
BBX 12 12 0 0
BITMAP
7080
8880
8900
8900
7200
0200
0400
04E0
0910
0910
1110
10E0
ENDCHAR

STARTCHAR ampersand
ENCODING 38
SWIDTH 720 0
DWIDTH 12 0
BBX 10 12 1 0
BITMAP
3800
4400
4400
4400
2800
30C0
4880
8500
8300
8300
4480
3840
ENDCHAR

STARTCHAR quoteright
ENCODING 39
SWIDTH 200 0
DWIDTH 3 0
BBX 2 4 0 8
BITMAP
40
40
80
80
ENDCHAR

STARTCHAR parenleft
ENCODING 40
SWIDTH 340 0
DWIDTH 5 0
BBX 4 14 0 -2
BITMAP
10
20
40
40
80
80
80
80
80
80
40
40
20
10
ENDCHAR

STARTCHAR parenright
ENCODING 41
SWIDTH 340 0
DWIDTH 5 0
BBX 4 14 0 -2
BITMAP
80
40
20
20
10
10
10
10
10
10
20
20
40
80
ENDCHAR

STARTCHAR asterisk
ENCODING 42
SWIDTH 340 0
DWIDTH 5 0
BBX 5 5 0 7
BITMAP
50
20
F8
20
50
ENDCHAR

STARTCHAR plus
ENCODING 43
SWIDTH 660 0
DWIDTH 11 0
BBX 9 9 0 1
BITMAP
0800
0800
0800
0800
FF80
0800
0800
0800
0800
ENDCHAR

STARTCHAR comma
ENCODING 44
SWIDTH 300 0
DWIDTH 4 0
BBX 2 4 0 -2
BITMAP
40
40
80
80
ENDCHAR

STARTCHAR minus
ENCODING 45
SWIDTH 660 0
DWIDTH 11 0
BBX 8 1 1 5
BITMAP
FF
ENDCHAR

STARTCHAR period
ENCODING 46
SWIDTH 300 0
DWIDTH 4 0
BBX 1 2 1 0
BITMAP
80
80
ENDCHAR

STARTCHAR slash
ENCODING 47
SWIDTH 580 0
DWIDTH 9 0
BBX 8 15 0 -3
BITMAP
01
01
02
02
04
04
08
18
10
20
20
40
40
80
80
ENDCHAR

STARTCHAR zero
ENCODING 48
SWIDTH 580 0
DWIDTH 9 0
BBX 7 12 1 0
BITMAP
38
44
82
82
82
82
82
82
82
82
44
38
ENDCHAR

STARTCHAR one
ENCODING 49
SWIDTH 580 0
DWIDTH 9 0
BBX 5 12 2 0
BITMAP
E0
20
20
20
20
20
20
20
20
20
20
F8
ENDCHAR

STARTCHAR two
ENCODING 50
SWIDTH 580 0
DWIDTH 9 0
BBX 7 12 1 0
BITMAP
38
44
82
82
02
04
08
10
20
42
82
FE
ENDCHAR

STARTCHAR three
ENCODING 51
SWIDTH 580 0
DWIDTH 9 0
BBX 7 12 1 0
BITMAP
38
44
82
02
04
38
04
02
02
82
44
38
ENDCHAR

STARTCHAR four
ENCODING 52
SWIDTH 580 0
DWIDTH 9 0
BBX 8 12 1 0
BITMAP
0C
0C
14
14
24
44
44
84
FF
04
04
0E
ENDCHAR

STARTCHAR five
ENCODING 53
SWIDTH 580 0
DWIDTH 9 0
BBX 7 12 1 0
BITMAP
7E
40
40
80
B8
C4
02
02
82
82
44
38
ENDCHAR

STARTCHAR six
ENCODING 54
SWIDTH 580 0
DWIDTH 9 0
BBX 7 12 1 0
BITMAP
08
10
20
40
78
C4
82
82
82
82
44
38
ENDCHAR

STARTCHAR seven
ENCODING 55
SWIDTH 580 0
DWIDTH 9 0
BBX 7 12 1 0
BITMAP
FE
82
84
04
08
08
08
10
10
10
20
20
ENDCHAR

STARTCHAR eight
ENCODING 56
SWIDTH 580 0
DWIDTH 9 0
BBX 7 12 1 0
BITMAP
38
44
82
82
44
38
44
82
82
82
44
38
ENDCHAR

STARTCHAR nine
ENCODING 57
SWIDTH 580 0
DWIDTH 9 0
BBX 7 12 1 0
BITMAP
38
44
82
82
82
82
46
3C
04
08
10
20
ENDCHAR

STARTCHAR colon
ENCODING 58
SWIDTH 300 0
DWIDTH 4 0
BBX 1 8 1 0
BITMAP
80
80
00
00
00
00
80
80
ENDCHAR

STARTCHAR semicolon
ENCODING 59
SWIDTH 300 0
DWIDTH 4 0
BBX 2 10 0 -2
BITMAP
40
40
00
00
00
00
40
40
80
80
ENDCHAR

STARTCHAR less
ENCODING 60
SWIDTH 660 0
DWIDTH 11 0
BBX 8 9 1 1
BITMAP
01
06
18
60
80
60
18
06
01
ENDCHAR

STARTCHAR equal
ENCODING 61
SWIDTH 660 0
DWIDTH 11 0
BBX 8 3 1 4
BITMAP
FF
00
FF
ENDCHAR

STARTCHAR greater
ENCODING 62
SWIDTH 660 0
DWIDTH 11 0
BBX 8 9 1 1
BITMAP
80
60
18
06
01
06
18
60
80
ENDCHAR

STARTCHAR question
ENCODING 63
SWIDTH 520 0
DWIDTH 8 0
BBX 7 12 0 0
BITMAP
38
44
82
82
02
04
08
10
10
00
10
10
ENDCHAR

STARTCHAR at
ENCODING 64
SWIDTH 900 0
DWIDTH 14 0
BBX 12 12 0 0
BITMAP
0F80
3060
4020
4790
8890
9090
9110
9120
4EC0
4000
3060
0F80
ENDCHAR

STARTCHAR A
ENCODING 65
SWIDTH 820 0
DWIDTH 13 0
BBX 11 12 0 0
BITMAP
0C00
0400
0A00
0A00
1100
1100
2080
3F80
2080
4040
4040
E0E0
ENDCHAR

STARTCHAR B
ENCODING 66
SWIDTH 580 0
DWIDTH 9 0
BBX 8 12 0 0
BITMAP
FC
42
41
41
42
7C
42
41
41
41
42
FC
ENDCHAR

STARTCHAR C
ENCODING 67
SWIDTH 740 0
DWIDTH 12 0
BBX 11 12 0 0
BITMAP
0FA0
3060
4020
4000
8000
8000
8000
8000
4000
4020
3040
0F80
ENDCHAR

STARTCHAR D
ENCODING 68
SWIDTH 720 0
DWIDTH 11 0
BBX 10 12 0 0
BITMAP
FE00
4180
4080
4040
4040
4040
4040
4040
4040
4080
4180
FE00
ENDCHAR

STARTCHAR E
ENCODING 69
SWIDTH 560 0
DWIDTH 9 0
BBX 8 12 0 0
BITMAP
FF
41
41
40
40
7C
40
40
40
41
41
FF
ENDCHAR

STARTCHAR F
ENCODING 70
SWIDTH 560 0
DWIDTH 9 0
BBX 8 12 0 0
BITMAP
FF
41
41
40
40
7C
40
40
40
40
40
E0
ENDCHAR

STARTCHAR G
ENCODING 71
SWIDTH 780 0
DWIDTH 12 0
BBX 11 12 0 0
BITMAP
0FA0
3060
4020
4000
8000
8000
8FE0
8020
4020
4060
30A0
0F20
ENDCHAR

STARTCHAR H
ENCODING 72
SWIDTH 720 0
DWIDTH 11 0
BBX 10 12 0 0
BITMAP
E1C0
4080
4080
4080
4080
7F80
4080
4080
4080
4080
4080
E1C0
ENDCHAR

STARTCHAR I
ENCODING 73
SWIDTH 300 0
DWIDTH 6 0
BBX 3 12 1 0
BITMAP
E0
40
40
40
40
40
40
40
40
40
40
E0
ENDCHAR

STARTCHAR J
ENCODING 74
SWIDTH 520 0
DWIDTH 8 0
BBX 7 12 0 0
BITMAP
0E
04
04
04
04
04
04
04
04
84
84
78
ENDCHAR

STARTCHAR K
ENCODING 75
SWIDTH 700 0
DWIDTH 11 0
BBX 10 12 0 0
BITMAP
E3C0
4100
4200
4400
4800
7000
4800
4400
4200
4100
4080
E1C0
ENDCHAR

STARTCHAR L
ENCODING 76
SWIDTH 520 0
DWIDTH 8 0
BBX 7 12 0 0
BITMAP
E0
40
40
40
40
40
40
40
40
42
42
FE
ENDCHAR

STARTCHAR M
ENCODING 77
SWIDTH 980 0
DWIDTH 16 0
BBX 15 12 0 0
BITMAP
E00E
600C
5014
5014
4824
4824
4444
4444
4284
4284
4104
E10E
ENDCHAR

STARTCHAR N
ENCODING 78
SWIDTH 800 0
DWIDTH 12 0
BBX 11 12 0 0
BITMAP
C0E0
6040
5040
5040
4840
4440
4440
4240
4140
4140
40C0
E040
ENDCHAR

STARTCHAR O
ENCODING 79
SWIDTH 800 0
DWIDTH 13 0
BBX 12 12 0 0
BITMAP
0F00
30C0
4020
4020
8010
8010
8010
8010
4020
4020
30C0
0F00
ENDCHAR

STARTCHAR P
ENCODING 80
SWIDTH 580 0
DWIDTH 9 0
BBX 8 12 0 0
BITMAP
FC
42
41
41
41
42
7C
40
40
40
40
E0
ENDCHAR

STARTCHAR Q
ENCODING 81
SWIDTH 860 0
DWIDTH 13 0
BBX 13 12 0 0
BITMAP
0F00
30C0
4020
4020
8010
8010
8010
FC10
4320
40A0
3048
0FB8
ENDCHAR

STARTCHAR R
ENCODING 82
SWIDTH 640 0
DWIDTH 10 0
BBX 10 12 0 0
BITMAP
FE00
4100
4080
4080
4080
4100
5E00
4800
4400
4200
4100
E0C0
ENDCHAR

STARTCHAR S
ENCODING 83
SWIDTH 500 0
DWIDTH 8 0
BBX 7 12 0 0
BITMAP
3A
46
82
80
40
30
0C
02
02
82
C4
B8
ENDCHAR

STARTCHAR T
ENCODING 84
SWIDTH 540 0
DWIDTH 8 0
BBX 7 12 0 0
BITMAP
FE
92
92
10
10
10
10
10
10
10
10
38
ENDCHAR

STARTCHAR U
ENCODING 85
SWIDTH 700 0
DWIDTH 10 0
BBX 9 12 0 0
BITMAP
E380
4100
4100
4100
4100
4100
4100
4100
4100
4100
2200
1C00
ENDCHAR

STARTCHAR V
ENCODING 86
SWIDTH 780 0
DWIDTH 12 0
BBX 13 12 -1 0
BITMAP
F078
2020
2020
1040
1040
0880
0880
0880
0500
0500
0200
0200
ENDCHAR

STARTCHAR W
ENCODING 87
SWIDTH 1040 0
DWIDTH 16 0
BBX 17 12 -1 0
BITMAP
F08780
208200
208200
114400
114400
114400
0A2800
0A2800
0A2800
041000
041000
041000
ENDCHAR

STARTCHAR X
ENCODING 88
SWIDTH 740 0
DWIDTH 11 0
BBX 10 12 0 0
BITMAP
E1C0
4080
2100
3300
1200
0C00
0C00
1200
3300
2100
4080
E1C0
ENDCHAR

STARTCHAR Y
ENCODING 89
SWIDTH 680 0
DWIDTH 12 0
BBX 11 12 0 0
BITMAP
F1E0
4040
2080
3180
1100
0A00
0E00
0400
0400
0400
0400
0E00
ENDCHAR

STARTCHAR Z
ENCODING 90
SWIDTH 520 0
DWIDTH 8 0
BBX 7 12 0 0
BITMAP
FE
82
84
04
08
10
10
20
40
42
82
FE
ENDCHAR

STARTCHAR bracketleft
ENCODING 91
SWIDTH 300 0
DWIDTH 5 0
BBX 3 14 1 -2
BITMAP
E0
80
80
80
80
80
80
80
80
80
80
80
80
E0
ENDCHAR

STARTCHAR backslash
ENCODING 92
SWIDTH 580 0
DWIDTH 9 0
BBX 6 12 1 0
BITMAP
80
80
40
40
20
20
10
10
08
08
04
04
ENDCHAR

STARTCHAR bracketright
ENCODING 93
SWIDTH 300 0
DWIDTH 5 0
BBX 3 14 0 -2
BITMAP
E0
20
20
20
20
20
20
20
20
20
20
20
20
E0
ENDCHAR

STARTCHAR asciicircum
ENCODING 94
SWIDTH 660 0
DWIDTH 11 0
BBX 9 9 1 3
BITMAP
0800
0800
1400
1400
2200
2200
4100
4100
C180
ENDCHAR

STARTCHAR underscore
ENCODING 95
SWIDTH 500 0
DWIDTH 8 0
BBX 8 1 0 -2
BITMAP
FF
ENDCHAR

STARTCHAR quoteleft
ENCODING 96
SWIDTH 200 0
DWIDTH 3 0
BBX 2 4 0 8
BITMAP
80
80
40
40
ENDCHAR

STARTCHAR a
ENCODING 97
SWIDTH 660 0
DWIDTH 10 0
BBX 9 9 0 0
BITMAP
3D80
4300
8100
8100
8100
8100
8100
4300
3D80
ENDCHAR

STARTCHAR b
ENCODING 98
SWIDTH 660 0
DWIDTH 10 0
BBX 9 12 0 0
BITMAP
C000
4000
4000
5E00
6100
4080
4080
4080
4080
4080
6100
DE00
ENDCHAR

STARTCHAR c
ENCODING 99
SWIDTH 560 0
DWIDTH 9 0
BBX 8 9 0 0
BITMAP
3D
43
81
80
80
80
81
42
3C
ENDCHAR

STARTCHAR d
ENCODING 100
SWIDTH 660 0
DWIDTH 10 0
BBX 9 12 0 0
BITMAP
0300
0100
0100
3D00
4300
8100
8100
8100
8100
8100
4300
3D80
ENDCHAR

STARTCHAR e
ENCODING 101
SWIDTH 580 0
DWIDTH 9 0
BBX 8 9 0 0
BITMAP
3C
42
81
81
FF
80
81
42
3C
ENDCHAR

STARTCHAR f
ENCODING 102
SWIDTH 300 0
DWIDTH 4 0
BBX 4 12 0 0
BITMAP
30
40
40
E0
40
40
40
40
40
40
40
E0
ENDCHAR

STARTCHAR g
ENCODING 103
SWIDTH 660 0
DWIDTH 10 0
BBX 9 12 0 -3
BITMAP
3D80
4300
8100
8100
8100
8100
8100
4300
3D00
8100
4200
3C00
ENDCHAR

STARTCHAR h
ENCODING 104
SWIDTH 640 0
DWIDTH 10 0
BBX 9 12 0 0
BITMAP
C000
4000
4000
5C00
6200
4100
4100
4100
4100
4100
4100
E380
ENDCHAR

STARTCHAR i
ENCODING 105
SWIDTH 260 0
DWIDTH 4 0
BBX 3 12 0 0
BITMAP
40
40
00
C0
40
40
40
40
40
40
40
E0
ENDCHAR

STARTCHAR j
ENCODING 106
SWIDTH 240 0
DWIDTH 4 0
BBX 2 15 0 -3
BITMAP
40
40
00
C0
40
40
40
40
40
40
40
40
40
40
80
ENDCHAR

STARTCHAR k
ENCODING 107
SWIDTH 580 0
DWIDTH 9 0
BBX 8 12 0 0
BITMAP
C0
40
40
4E
44
48
50
60
50
48
44
EF
ENDCHAR

STARTCHAR l
ENCODING 108
SWIDTH 280 0
DWIDTH 4 0
BBX 3 12 0 0
BITMAP
C0
40
40
40
40
40
40
40
40
40
40
E0
ENDCHAR

STARTCHAR m
ENCODING 109
SWIDTH 980 0
DWIDTH 16 0
BBX 15 9 0 0
BITMAP
DC70
6288
4104
4104
4104
4104
4104
4104
E38E
ENDCHAR

STARTCHAR n
ENCODING 110
SWIDTH 660 0
DWIDTH 10 0
BBX 9 9 0 0
BITMAP
DC00
6200
4100
4100
4100
4100
4100
4100
E380
ENDCHAR

STARTCHAR o
ENCODING 111
SWIDTH 580 0
DWIDTH 9 0
BBX 8 9 0 0
BITMAP
3C
42
81
81
81
81
81
42
3C
ENDCHAR

STARTCHAR p
ENCODING 112
SWIDTH 660 0
DWIDTH 10 0
BBX 9 12 0 -3
BITMAP
DE00
6100
4080
4080
4080
4080
4080
6100
5E00
4000
4000
E000
ENDCHAR

STARTCHAR q
ENCODING 113
SWIDTH 660 0
DWIDTH 10 0
BBX 9 12 0 -3
BITMAP
3D80
4300
8100
8100
8100
8100
8100
4300
3D00
0100
0100
0380
ENDCHAR

STARTCHAR r
ENCODING 114
SWIDTH 360 0
DWIDTH 6 0
BBX 5 9 0 0
BITMAP
D8
60
40
40
40
40
40
40
E0
ENDCHAR

STARTCHAR s
ENCODING 115
SWIDTH 420 0
DWIDTH 7 0
BBX 6 9 0 0
BITMAP
74
8C
84
C0
38
04
84
C4
B8
ENDCHAR

STARTCHAR t
ENCODING 116
SWIDTH 320 0
DWIDTH 6 0
BBX 5 12 0 0
BITMAP
20
20
20
F8
20
20
20
20
20
20
20
38
ENDCHAR

STARTCHAR u
ENCODING 117
SWIDTH 640 0
DWIDTH 10 0
BBX 9 9 0 0
BITMAP
C300
4100
4100
4100
4100
4100
4100
2300
1D80
ENDCHAR

STARTCHAR v
ENCODING 118
SWIDTH 640 0
DWIDTH 10 0
BBX 9 9 0 0
BITMAP
E380
4100
4100
2200
2200
1400
1400
0800
0800
ENDCHAR

STARTCHAR w
ENCODING 119
SWIDTH 900 0
DWIDTH 14 0
BBX 13 9 0 0
BITMAP
E038
4210
4210
2520
2520
28A0
18C0
1040
1040
ENDCHAR

STARTCHAR x
ENCODING 120
SWIDTH 600 0
DWIDTH 10 0
BBX 9 9 0 0
BITMAP
E380
4100
2200
1400
0800
1400
2200
4100
E380
ENDCHAR

STARTCHAR y
ENCODING 121
SWIDTH 640 0
DWIDTH 10 0
BBX 9 12 0 -3
BITMAP
E380
4100
4100
2200
2200
1400
1400
0800
0800
1000
1000
7800
ENDCHAR

STARTCHAR z
ENCODING 122
SWIDTH 420 0
DWIDTH 7 0
BBX 6 9 0 0
BITMAP
FC
84
88
10
30
20
44
84
FC
ENDCHAR

STARTCHAR braceleft
ENCODING 123
SWIDTH 300 0
DWIDTH 5 0
BBX 3 14 1 -2
BITMAP
20
40
40
40
40
40
80
40
40
40
40
40
40
20
ENDCHAR

STARTCHAR bar
ENCODING 124
SWIDTH 660 0
DWIDTH 11 0
BBX 1 12 5 0
BITMAP
80
80
80
80
80
80
80
80
80
80
80
80
ENDCHAR

STARTCHAR braceright
ENCODING 125
SWIDTH 300 0
DWIDTH 5 0
BBX 3 14 1 -2
BITMAP
80
40
40
40
40
40
20
40
40
40
40
40
40
80
ENDCHAR

STARTCHAR asciitilde
ENCODING 126
SWIDTH 660 0
DWIDTH 11 0
BBX 9 2 1 5
BITMAP
7880
8F00
ENDCHAR

STARTCHAR space
ENCODING 160
SWIDTH 300 0
DWIDTH 4 0
BBX 1 1 0 0
BITMAP
00
ENDCHAR

STARTCHAR exclamdown
ENCODING 161
SWIDTH 140 0
DWIDTH 2 0
BBX 1 12 0 -3
BITMAP
80
80
00
80
80
80
80
80
80
80
80
80
ENDCHAR

STARTCHAR cent
ENCODING 162
SWIDTH 580 0
DWIDTH 9 0
BBX 7 11 0 0
BITMAP
10
10
3A
56
92
90
90
52
3C
10
10
ENDCHAR

STARTCHAR sterling
ENCODING 163
SWIDTH 640 0
DWIDTH 9 0
BBX 9 12 0 0
BITMAP
1D00
2300
4100
4000
4000
2000
FC00
1000
1080
1080
2180
FF00
ENDCHAR

STARTCHAR currency
ENCODING 164
SWIDTH 560 0
DWIDTH 9 0
BBX 7 7 1 2
BITMAP
BA
44
82
82
82
44
BA
ENDCHAR

STARTCHAR yen
ENCODING 165
SWIDTH 740 0
DWIDTH 9 0
BBX 11 12 -1 0
BITMAP
F1E0
2080
2080
1100
1100
3B80
0A00
3F80
0400
0400
0400
0E00
ENDCHAR

STARTCHAR brokenbar
ENCODING 166
SWIDTH 660 0
DWIDTH 11 0
BBX 1 12 5 0
BITMAP
80
80
80
80
00
00
00
00
80
80
80
80
ENDCHAR

STARTCHAR section
ENCODING 167
SWIDTH 440 0
DWIDTH 7 0
BBX 5 14 0 -2
BITMAP
70
88
88
C0
70
88
88
88
70
18
08
88
88
70
ENDCHAR

STARTCHAR dieresis
ENCODING 168
SWIDTH 340 0
DWIDTH 5 0
BBX 3 2 1 10
BITMAP
A0
A0
ENDCHAR

STARTCHAR copyright
ENCODING 169
SWIDTH 820 0
DWIDTH 13 0
BBX 12 12 0 0
BITMAP
0F00
30C0
4720
48A0
9090
9010
9010
9090
48A0
4720
30C0
0F00
ENDCHAR

STARTCHAR ordfeminine
ENCODING 170
SWIDTH 420 0
DWIDTH 7 0
BBX 6 7 0 5
BITMAP
6C
98
88
98
6C
00
FC
ENDCHAR

STARTCHAR guillemotleft
ENCODING 171
SWIDTH 320 0
DWIDTH 5 0
BBX 5 6 0 1
BITMAP
28
50
A0
A0
50
28
ENDCHAR

STARTCHAR logicalnot
ENCODING 172
SWIDTH 660 0
DWIDTH 11 0
BBX 9 5 1 2
BITMAP
FF80
0080
0080
0080
0080
ENDCHAR

STARTCHAR hyphen
ENCODING 173
SWIDTH 300 0
DWIDTH 5 0
BBX 4 1 0 5
BITMAP
F0
ENDCHAR

STARTCHAR registered
ENCODING 174
SWIDTH 820 0
DWIDTH 13 0
BBX 12 12 0 0
BITMAP
0F00
30C0
4F20
48A0
8890
8890
8F10
8910
48A0
48A0
30C0
0F00
ENDCHAR

STARTCHAR macron
ENCODING 175
SWIDTH 460 0
DWIDTH 7 0
BBX 4 1 1 10
BITMAP
F0
ENDCHAR

STARTCHAR degree
ENCODING 176
SWIDTH 400 0
DWIDTH 6 0
BBX 5 5 0 7
BITMAP
70
88
88
88
70
ENDCHAR

STARTCHAR plusminus
ENCODING 177
SWIDTH 660 0
DWIDTH 11 0
BBX 9 9 1 1
BITMAP
0800
0800
0800
FF80
0800
0800
0800
0000
FF80
ENDCHAR

STARTCHAR twosuperior
ENCODING 178
SWIDTH 348 0
DWIDTH 6 0
BBX 5 7 0 5
BITMAP
70
88
88
10
20
48
F8
ENDCHAR

STARTCHAR threesuperior
ENCODING 179
SWIDTH 348 0
DWIDTH 6 0
BBX 5 7 0 5
BITMAP
70
88
08
30
08
88
70
ENDCHAR

STARTCHAR acute
ENCODING 180
SWIDTH 420 0
DWIDTH 7 0
BBX 3 3 2 10
BITMAP
20
40
80
ENDCHAR

STARTCHAR mu
ENCODING 181
SWIDTH 640 0
DWIDTH 10 0
BBX 9 12 0 -3
BITMAP
C300
4100
4100
4100
4100
4100
4100
6300
5D80
4000
4000
4000
ENDCHAR

STARTCHAR paragraph
ENCODING 182
SWIDTH 500 0
DWIDTH 8 0
BBX 7 14 0 -2
BITMAP
7E
F4
F4
F4
F4
74
14
14
14
14
14
14
14
14
ENDCHAR

STARTCHAR periodcentered
ENCODING 183
SWIDTH 300 0
DWIDTH 4 0
BBX 1 2 1 5
BITMAP
80
80
ENDCHAR

STARTCHAR cedilla
ENCODING 184
SWIDTH 320 0
DWIDTH 5 0
BBX 3 4 1 -4
BITMAP
40
E0
20
C0
ENDCHAR

STARTCHAR onesuperior
ENCODING 185
SWIDTH 348 0
DWIDTH 6 0
BBX 3 7 1 5
BITMAP
C0
40
40
40
40
40
E0
ENDCHAR

STARTCHAR ordmasculine
ENCODING 186
SWIDTH 340 0
DWIDTH 6 0
BBX 5 7 0 5
BITMAP
70
88
88
88
70
00
F8
ENDCHAR

STARTCHAR guillemotright
ENCODING 187
SWIDTH 320 0
DWIDTH 5 0
BBX 5 6 0 1
BITMAP
A0
50
28
28
50
A0
ENDCHAR

STARTCHAR onequarter
ENCODING 188
SWIDTH 870 0
DWIDTH 14 0
BBX 12 12 1 0
BITMAP
C080
4100
4100
4200
4200
4420
E460
08A0
0920
11F0
1020
2070
ENDCHAR

STARTCHAR onehalf
ENCODING 189
SWIDTH 870 0
DWIDTH 14 0
BBX 12 12 1 0
BITMAP
C080
4100
4100
4200
4200
44E0
E510
0910
0820
1040
1090
21F0
ENDCHAR

STARTCHAR threequarters
ENCODING 190
SWIDTH 870 0
DWIDTH 14 0
BBX 13 12 0 0
BITMAP
7040
8880
0880
3100
0900
8A10
7230
0450
0490
08F8
0810
1038
ENDCHAR

STARTCHAR questiondown
ENCODING 191
SWIDTH 520 0
DWIDTH 8 0
BBX 7 12 0 -3
BITMAP
10
10
00
10
10
20
40
80
82
82
44
38
ENDCHAR

STARTCHAR Agrave
ENCODING 192
SWIDTH 820 0
DWIDTH 13 0
BBX 11 16 0 0
BITMAP
1000
0800
0400
0000
0C00
0400
0A00
0A00
1100
1100
2080
3F80
2080
4040
4040
E0E0
ENDCHAR

STARTCHAR Aacute
ENCODING 193
SWIDTH 820 0
DWIDTH 13 0
BBX 11 16 0 0
BITMAP
0100
0200
0400
0000
0C00
0400
0A00
0A00
1100
1100
2080
3F80
2080
4040
4040
E0E0
ENDCHAR

STARTCHAR Acircumflex
ENCODING 194
SWIDTH 820 0
DWIDTH 13 0
BBX 11 16 0 0
BITMAP
0400
0A00
1100
0000
0C00
0400
0A00
0A00
1100
1100
2080
3F80
2080
4040
4040
E0E0
ENDCHAR

STARTCHAR Atilde
ENCODING 195
SWIDTH 820 0
DWIDTH 13 0
BBX 11 15 0 0
BITMAP
0D00
1600
0000
0C00
0400
0A00
0A00
1100
1100
2080
3F80
2080
4040
4040
E0E0
ENDCHAR

STARTCHAR Adieresis
ENCODING 196
SWIDTH 820 0
DWIDTH 13 0
BBX 11 15 0 0
BITMAP
1200
1200
0000
0C00
0400
0A00
0A00
1100
1100
2080
3F80
2080
4040
4040
E0E0
ENDCHAR

STARTCHAR Aring
ENCODING 197
SWIDTH 820 0
DWIDTH 13 0
BBX 11 16 0 0
BITMAP
0C00
1200
1200
0C00
0C00
0400
0A00
0A00
1100
1100
2080
3F80
2080
4040
4040
E0E0
ENDCHAR

STARTCHAR AE
ENCODING 198
SWIDTH 1000 0
DWIDTH 16 0
BBX 14 12 0 0
BITMAP
07FC
0304
0504
0500
0900
09F0
1100
1F00
2100
2104
4104
E3FC
ENDCHAR

STARTCHAR Ccedilla
ENCODING 199
SWIDTH 740 0
DWIDTH 12 0
BBX 11 16 0 -4
BITMAP
1FA0
3060
4020
4000
8000
8000
8000
8000
4000
4020
3040
1F80
0400
0E00
0200
0C00
ENDCHAR

STARTCHAR Egrave
ENCODING 200
SWIDTH 560 0
DWIDTH 9 0
BBX 8 16 0 0
BITMAP
20
10
08
00
FF
41
41
40
40
7C
40
40
40
41
41
FF
ENDCHAR

STARTCHAR Eacute
ENCODING 201
SWIDTH 560 0
DWIDTH 9 0
BBX 8 16 0 0
BITMAP
04
08
10
00
FF
41
41
40
40
7C
40
40
40
41
41
FF
ENDCHAR

STARTCHAR Ecircumflex
ENCODING 202
SWIDTH 560 0
DWIDTH 9 0
BBX 8 16 0 0
BITMAP
08
14
22
00
FF
41
41
40
40
7C
40
40
40
41
41
FF
ENDCHAR

STARTCHAR Edieresis
ENCODING 203
SWIDTH 560 0
DWIDTH 9 0
BBX 8 15 0 0
BITMAP
24
24
00
FF
41
41
40
40
7C
40
40
40
41
41
FF
ENDCHAR

STARTCHAR Igrave
ENCODING 204
SWIDTH 300 0
DWIDTH 6 0
BBX 4 16 0 0
BITMAP
80
40
20
00
70
20
20
20
20
20
20
20
20
20
20
70
ENDCHAR

STARTCHAR Iacute
ENCODING 205
SWIDTH 300 0
DWIDTH 6 0
BBX 4 16 1 0
BITMAP
10
20
40
00
E0
40
40
40
40
40
40
40
40
40
40
E0
ENDCHAR

STARTCHAR Icircumflex
ENCODING 206
SWIDTH 300 0
DWIDTH 6 0
BBX 5 16 0 0
BITMAP
20
50
88
00
70
20
20
20
20
20
20
20
20
20
20
70
ENDCHAR

STARTCHAR Idieresis
ENCODING 207
SWIDTH 300 0
DWIDTH 6 0
BBX 3 15 1 0
BITMAP
A0
A0
00
E0
40
40
40
40
40
40
40
40
40
40
E0
ENDCHAR

STARTCHAR Eth
ENCODING 208
SWIDTH 720 0
DWIDTH 11 0
BBX 10 12 0 0
BITMAP
FE00
4180
4080
4040
4040
F840
4040
4040
4040
4080
4180
FE00
ENDCHAR

STARTCHAR Ntilde
ENCODING 209
SWIDTH 800 0
DWIDTH 12 0
BBX 11 15 0 0
BITMAP
0D00
1600
0000
C0E0
6040
5040
5040
4840
4440
4440
4240
4140
4140
40C0
E040
ENDCHAR

STARTCHAR Ograve
ENCODING 210
SWIDTH 800 0
DWIDTH 13 0
BBX 12 16 0 0
BITMAP
0800
0400
0200
0000
0F00
30C0
4020
4020
8010
8010
8010
8010
4020
4020
30C0
0F00
ENDCHAR

STARTCHAR Oacute
ENCODING 211
SWIDTH 800 0
DWIDTH 13 0
BBX 12 16 0 0
BITMAP
0100
0200
0400
0000
0F00
30C0
4020
4020
8010
8010
8010
8010
4020
4020
30C0
0F00
ENDCHAR

STARTCHAR Ocircumflex
ENCODING 212
SWIDTH 800 0
DWIDTH 13 0
BBX 12 16 0 0
BITMAP
0200
0500
0880
0000
0F00
30C0
4020
4020
8010
8010
8010
8010
4020
4020
30C0
0F00
ENDCHAR

STARTCHAR Otilde
ENCODING 213
SWIDTH 800 0
DWIDTH 13 0
BBX 12 15 0 0
BITMAP
0680
0B00
0000
0F00
30C0
4020
4020
8010
8010
8010
8010
4020
4020
30C0
0F00
ENDCHAR

STARTCHAR Odieresis
ENCODING 214
SWIDTH 800 0
DWIDTH 13 0
BBX 12 15 0 0
BITMAP
0900
0900
0000
0F00
30C0
4020
4020
8010
8010
8010
8010
4020
4020
30C0
0F00
ENDCHAR

STARTCHAR multiply
ENCODING 215
SWIDTH 660 0
DWIDTH 11 0
BBX 7 7 2 2
BITMAP
82
44
28
10
28
44
82
ENDCHAR

STARTCHAR Oslash
ENCODING 216
SWIDTH 800 0
DWIDTH 13 0
BBX 12 12 0 0
BITMAP
0F10
30E0
4060
40A0
8110
8210
8410
8810
5020
6020
70C0
8F00
ENDCHAR

STARTCHAR Ugrave
ENCODING 217
SWIDTH 700 0
DWIDTH 10 0
BBX 9 16 0 0
BITMAP
2000
1000
0800
0000
E380
4100
4100
4100
4100
4100
4100
4100
4100
4100
2200
1C00
ENDCHAR

STARTCHAR Uacute
ENCODING 218
SWIDTH 700 0
DWIDTH 10 0
BBX 9 16 0 0
BITMAP
0200
0400
0800
0000
E380
4100
4100
4100
4100
4100
4100
4100
4100
4100
2200
1C00
ENDCHAR

STARTCHAR Ucircumflex
ENCODING 219
SWIDTH 700 0
DWIDTH 10 0
BBX 9 16 0 0
BITMAP
0800
1400
2200
0000
E380
4100
4100
4100
4100
4100
4100
4100
4100
4100
2200
1C00
ENDCHAR

STARTCHAR Udieresis
ENCODING 220
SWIDTH 700 0
DWIDTH 10 0
BBX 9 15 0 0
BITMAP
2200
2200
0000
E380
4100
4100
4100
4100
4100
4100
4100
4100
4100
2200
1C00
ENDCHAR

STARTCHAR Yacute
ENCODING 221
SWIDTH 680 0
DWIDTH 12 0
BBX 11 16 0 0
BITMAP
0100
0200
0400
0000
F1E0
4040
2080
3180
1100
0A00
0E00
0400
0400
0400
0400
0E00
ENDCHAR

STARTCHAR Thorn
ENCODING 222
SWIDTH 580 0
DWIDTH 9 0
BBX 8 12 0 0
BITMAP
E0
40
7C
42
41
41
41
42
7C
40
40
E0
ENDCHAR

STARTCHAR germandbls
ENCODING 223
SWIDTH 580 0
DWIDTH 9 0
BBX 8 12 0 0
BITMAP
1C
22
41
41
42
4C
42
41
41
41
42
DC
ENDCHAR

STARTCHAR agrave
ENCODING 224
SWIDTH 660 0
DWIDTH 10 0
BBX 9 13 0 0
BITMAP
1000
0800
0400
0000
3D80
4300
8100
8100
8100
8100
8100
4300
3D80
ENDCHAR

STARTCHAR aacute
ENCODING 225
SWIDTH 660 0
DWIDTH 10 0
BBX 9 13 0 0
BITMAP
0200
0400
0800
0000
3D80
4300
8100
8100
8100
8100
8100
4300
3D80
ENDCHAR

STARTCHAR acircumflex
ENCODING 226
SWIDTH 660 0
DWIDTH 10 0
BBX 9 13 0 0
BITMAP
0800
1400
2200
0000
3D80
4300
8100
8100
8100
8100
8100
4300
3D80
ENDCHAR

STARTCHAR atilde
ENCODING 227
SWIDTH 660 0
DWIDTH 10 0
BBX 9 12 0 0
BITMAP
1A00
2C00
0000
3D80
4300
8100
8100
8100
8100
8100
4300
3D80
ENDCHAR

STARTCHAR adieresis
ENCODING 228
SWIDTH 660 0
DWIDTH 10 0
BBX 9 12 0 0
BITMAP
1400
1400
0000
3D80
4300
8100
8100
8100
8100
8100
4300
3D80
ENDCHAR

STARTCHAR aring
ENCODING 229
SWIDTH 660 0
DWIDTH 10 0
BBX 9 13 0 0
BITMAP
1800
2400
2400
1800
3D80
4300
8100
8100
8100
8100
8100
4300
3D80
ENDCHAR

STARTCHAR ae
ENCODING 230
SWIDTH 1060 0
DWIDTH 16 0
BBX 15 9 0 0
BITMAP
3D78
4384
8102
8102
81FE
8100
8102
4384
3D78
ENDCHAR

STARTCHAR ccedilla
ENCODING 231
SWIDTH 560 0
DWIDTH 9 0
BBX 8 13 0 -4
BITMAP
3D
43
81
80
80
80
81
42
3C
08
1C
04
18
ENDCHAR

STARTCHAR egrave
ENCODING 232
SWIDTH 580 0
DWIDTH 9 0
BBX 8 13 0 0
BITMAP
20
10
08
00
3C
42
81
81
FF
80
81
42
3C
ENDCHAR

STARTCHAR eacute
ENCODING 233
SWIDTH 580 0
DWIDTH 9 0
BBX 8 13 0 0
BITMAP
04
08
10
00
3C
42
81
81
FF
80
81
42
3C
ENDCHAR

STARTCHAR ecircumflex
ENCODING 234
SWIDTH 580 0
DWIDTH 9 0
BBX 8 13 0 0
BITMAP
10
28
44
00
3C
42
81
81
FF
80
81
42
3C
ENDCHAR

STARTCHAR edieresis
ENCODING 235
SWIDTH 580 0
DWIDTH 9 0
BBX 8 12 0 0
BITMAP
28
28
00
3C
42
81
81
FF
80
81
42
3C
ENDCHAR

STARTCHAR igrave
ENCODING 236
SWIDTH 260 0
DWIDTH 4 0
BBX 3 13 0 0
BITMAP
80
40
20
00
C0
40
40
40
40
40
40
40
E0
ENDCHAR

STARTCHAR iacute
ENCODING 237
SWIDTH 260 0
DWIDTH 4 0
BBX 3 13 0 0
BITMAP
20
40
80
00
C0
40
40
40
40
40
40
40
E0
ENDCHAR

STARTCHAR icircumflex
ENCODING 238
SWIDTH 260 0
DWIDTH 4 0
BBX 5 13 -1 0
BITMAP
20
50
88
00
60
20
20
20
20
20
20
20
70
ENDCHAR

STARTCHAR idieresis
ENCODING 239
SWIDTH 260 0
DWIDTH 4 0
BBX 3 12 0 0
BITMAP
A0
A0
00
C0
40
40
40
40
40
40
40
E0
ENDCHAR

STARTCHAR eth
ENCODING 240
SWIDTH 580 0
DWIDTH 9 0
BBX 8 13 0 0
BITMAP
C0
36
68
04
3E
42
81
81
81
81
81
42
3C
ENDCHAR

STARTCHAR ntilde
ENCODING 241
SWIDTH 660 0
DWIDTH 10 0
BBX 9 12 0 0
BITMAP
1A00
2C00
0000
DC00
6200
4100
4100
4100
4100
4100
4100
E380
ENDCHAR

STARTCHAR ograve
ENCODING 242
SWIDTH 580 0
DWIDTH 9 0
BBX 8 13 0 0
BITMAP
20
10
08
00
3C
42
81
81
81
81
81
42
3C
ENDCHAR

STARTCHAR oacute
ENCODING 243
SWIDTH 580 0
DWIDTH 9 0
BBX 8 13 0 0
BITMAP
04
08
10
00
3C
42
81
81
81
81
81
42
3C
ENDCHAR

STARTCHAR ocircumflex
ENCODING 244
SWIDTH 580 0
DWIDTH 9 0
BBX 8 13 0 0
BITMAP
10
28
44
00
3C
42
81
81
81
81
81
42
3C
ENDCHAR

STARTCHAR otilde
ENCODING 245
SWIDTH 580 0
DWIDTH 9 0
BBX 8 12 0 0
BITMAP
1A
2C
00
3C
42
81
81
81
81
81
42
3C
ENDCHAR

STARTCHAR odieresis
ENCODING 246
SWIDTH 580 0
DWIDTH 9 0
BBX 8 12 0 0
BITMAP
28
28
00
3C
42
81
81
81
81
81
42
3C
ENDCHAR

STARTCHAR divide
ENCODING 247
SWIDTH 660 0
DWIDTH 11 0
BBX 9 7 1 2
BITMAP
0800
0800
0000
FF80
0000
0800
0800
ENDCHAR

STARTCHAR oslash
ENCODING 248
SWIDTH 580 0
DWIDTH 9 0
BBX 8 9 0 0
BITMAP
3D
42
85
89
99
91
A1
42
BC
ENDCHAR

STARTCHAR ugrave
ENCODING 249
SWIDTH 640 0
DWIDTH 10 0
BBX 9 13 0 0
BITMAP
2000
1000
0800
0000
C300
4100
4100
4100
4100
4100
4100
2300
1D80
ENDCHAR

STARTCHAR uacute
ENCODING 250
SWIDTH 640 0
DWIDTH 10 0
BBX 9 13 0 0
BITMAP
0200
0400
0800
0000
C300
4100
4100
4100
4100
4100
4100
2300
1D80
ENDCHAR

STARTCHAR ucircumflex
ENCODING 251
SWIDTH 640 0
DWIDTH 10 0
BBX 9 13 0 0
BITMAP
0800
1400
2200
0000
C300
4100
4100
4100
4100
4100
4100
2300
1D80
ENDCHAR

STARTCHAR udieresis
ENCODING 252
SWIDTH 640 0
DWIDTH 10 0
BBX 9 12 0 0
BITMAP
1400
1400
0000
C300
4100
4100
4100
4100
4100
4100
2300
1D80
ENDCHAR

STARTCHAR yacute
ENCODING 253
SWIDTH 640 0
DWIDTH 10 0
BBX 9 16 0 -3
BITMAP
0200
0400
0800
0000
E380
4100
4100
2200
2200
1400
1400
0800
0800
1000
1000
7800
ENDCHAR

STARTCHAR thorn
ENCODING 254
SWIDTH 660 0
DWIDTH 10 0
BBX 9 15 0 -3
BITMAP
C000
4000
4000
4E00
5100
6080
4080
4080
4080
6080
5100
4E00
4000
4000
E000
ENDCHAR

STARTCHAR ydieresis
ENCODING 255
SWIDTH 640 0
DWIDTH 10 0
BBX 9 15 0 -3
BITMAP
1400
1400
0000
E380
4100
4100
2200
2200
1400
1400
0800
0800
1000
1000
7800
ENDCHAR
ENDFONT
